<?xml version="1.0" encoding="UTF-8"?>
<svg width="420px" height="196px" viewBox="0 0 420 196" version="1.1" xmlns="http://www.w3.org/2000/svg" xmlns:xlink="http://www.w3.org/1999/xlink">
    <title>QintelLogo-print Copy</title>
    <defs>
        <polygon id="path-1" points="0 1.41497291e-14 420 1.41497291e-14 420 100.086635 0 100.086635"></polygon>
    </defs>
    <g id="logos" stroke="none" stroke-width="1" fill="none" fill-rule="evenodd">
        <g id="A3" transform="translate(-532.000000, -335.000000)">
            <g id="logo-qintel-preview" transform="translate(48.000000, 335.000000)">
                <g id="QintelLogo-print-Copy" transform="translate(484.000000, 0.000000)">
                    <g id="Group-4" transform="translate(118.632999, 0.000000)">
                        <path d="M40.4412771,47.4457412 C53.057444,55.0319693 57.1181293,71.3843286 49.5166941,83.9719512 C41.9102692,96.5595738 25.5198305,100.611072 12.9066575,93.0248435 C0.29049061,85.439611 -3.77219057,69.0862561 3.83423437,56.4986335 C11.4366675,43.9110109 27.829102,39.8585173 40.4412771,47.4457412" id="Fill-1" fill="#6384B5"></path>
                        <path d="M90.2043812,6.34827853 C69.2582709,-6.24730965 42.0439953,0.482617664 29.4188468,21.3793457 C25.7533524,27.4491248 23.7304944,34.0456284 23.2045713,40.6600547 C29.5715342,39.8993409 36.2299004,41.1628825 42.1457869,44.7215096 C56.2688682,53.2148193 60.8145604,71.521735 52.3059827,85.614854 C52.2840277,85.6506991 52.2590787,85.6855486 52.2371237,85.7223894 C71.7351991,92.8057898 94.1562892,85.3977917 105.271529,66.9982759 C117.897676,46.0995566 111.150492,18.9448624 90.2043812,6.34827853" id="Fill-3" fill="#31548C"></path>
                    </g>
                    <polyline id="Fill-5" fill="#6384B5" points="121.206815 114.470201 149.282327 114.470201 136.222069 167.338814 108.146557 167.338814 121.206815 114.470201"></polyline>
                    <path d="M156.487573,114.470201 L183.663926,114.470201 L182.041249,121.042808 L182.264791,121.042808 C186.0211,117.658429 196.151357,113.020464 209.62876,113.020464 C225.126028,113.020464 235.325144,119.012579 231.696574,133.703117 L223.386589,167.338814 L195.310079,167.338814 L202.067243,139.985976 C203.715868,133.316786 200.275911,130.418307 193.650478,130.418307 C186.238654,130.418307 179.692059,134.187027 177.519508,142.982033 L171.502828,167.338814 L143.426318,167.338814 L156.487573,114.470201" id="Fill-6" fill="#6384B5"></path>
                    <path d="M236.73825,114.470201 L249.764577,114.470201 L253.966972,97.4596854 L282.043482,97.4596854 L277.841087,114.470201 L293.003041,114.470201 L289.276672,129.548066 L274.116713,129.548066 L269.50815,148.20049 C268.289645,153.129198 270.576961,153.419942 276.642541,153.419942 C278.887944,153.419942 281.494606,153.323359 284.21304,153.226777 L280.727178,167.338814 C275.643587,167.917315 268.761678,168.497807 260.001616,168.497807 C242.931569,168.497807 237.110488,165.694915 240.668203,151.29313 L246.040203,129.548066 L233.012878,129.548066 L236.73825,114.470201" id="Fill-7" fill="#6384B5"></path>
                    <path d="M350.428456,134.379196 C351.275721,128.677826 345.758019,125.101276 336.099796,125.101276 C326.328803,125.101276 320.069619,127.711002 316.961983,134.379196 L350.428456,134.379196 Z M374.165851,151.487291 C370.671007,156.996492 364.832961,161.538869 356.881243,164.632505 C348.929525,167.724149 338.841182,169.463635 325.926626,169.463635 C296.390106,169.463635 281.836905,160.185715 286.612128,140.855221 C291.125885,122.588133 309.828589,112.343389 337.455021,112.343389 C364.632372,112.343389 382.6884,120.172568 375.719669,146.557587 L313.954142,146.557587 C313.023048,150.327302 316.194554,156.126251 328.548258,156.126251 C335.847313,156.126251 340.449888,154.773097 344.294017,151.487291 L374.165851,151.487291 L374.165851,151.487291 Z" id="Fill-8" fill="#6384B5"></path>
                    <g id="Group-12" transform="translate(0.000000, 95.913365)">
                        <mask id="mask-2" fill="white">
                            <use xlink:href="#path-1"></use>
                        </mask>
                        <g id="Clip-10"></g>
                        <polyline id="Fill-9" fill="#6384B5" mask="url(#mask-2)" points="391.925486 1.41497291e-14 420 1.41497291e-14 402.356128 71.4254484 374.280616 71.4254484 391.925486 1.41497291e-14"></polyline>
                        <path d="M77.2508198,36.919511 C76.3666302,40.4960606 75.0413439,43.5887007 73.4336359,46.0042657 L67.1415197,40.1097295 L51.1293067,52.1915372 L55.1800124,56.250005 C53.9215891,56.3465878 52.6621679,56.4441662 51.3139286,56.4441662 C38.3993727,56.4441662 31.5623723,50.9349655 35.0242836,36.919511 C38.4861949,22.9060479 48.0456209,17.3968472 60.9601768,17.3968472 C73.8757306,17.3968472 80.7127311,22.9060479 77.2508198,36.919511 Z M106.87516,77.1417545 L92.4876206,63.8850224 C100.899396,58.4724044 107.718434,49.9681421 110.940835,36.919511 C119.775745,1.15899325 84.4620539,1.41497291e-14 65.2583757,1.41497291e-14 C46.0536996,1.41497291e-14 10.1671815,1.15899325 1.33326997,36.919511 C-7.5016395,72.6810245 27.8120515,73.8410134 47.0167277,73.8410134 C51.9576106,73.8410134 56.8346243,73.6468522 61.0859193,73.2605211 C65.4479875,72.87419 69.0496127,72.3912761 71.4147698,71.9083623 L101.206767,100.086635 L106.87516,77.1417545 L106.87516,77.1417545 Z" id="Fill-11" fill="#31548C" mask="url(#mask-2)"></path>
                    </g>
                </g>
            </g>
        </g>
    </g>
</svg>
